<svg xmlns="http://www.w3.org/2000/svg" width="30" height="30" viewBox="0 0 30 30"><path fill="#fff" fill-rule="evenodd" d="M24.025 15a9.003 9.003 0 0 1-.709 3.502 9.1 9.1 0 0 1-3.263 3.959 9.167 9.167 0 0 1-1.531.83 9.092 9.092 0 0 1-3.508.709 8.957 8.957 0 0 1-1.815-.185 8.995 8.995 0 0 1-3.225-1.354 9.043 9.043 0 0 1-3.264-3.959A8.93 8.93 0 0 1 6.002 15a8.958 8.958 0 0 1 2.639-6.364 9.106 9.106 0 0 1 2.865-1.928 8.944 8.944 0 0 1 1.693-.524 9.1 9.1 0 0 1 3.63 0 8.944 8.944 0 0 1 3.224 1.355 9.037 9.037 0 0 1 3.263 3.958A8.999 8.999 0 0 1 24.025 15zM11.728 8.048a7.7 7.7 0 0 0-4.248 5.367c.203.002 3.41.042 7.106-.938a46.259 46.259 0 0 0-2.858-4.429zm3.496 5.612c-3.963 1.185-7.766 1.099-7.902 1.094l-.006.245c0 1.974.746 3.774 1.972 5.135-.003-.004 2.104-3.735 6.257-5.077l.304-.092a26.34 26.34 0 0 0-.624-1.306zm4.871-4.429a7.666 7.666 0 0 0-5.083-1.917c-.625 0-1.232.076-1.814.215.115.155 1.561 2.07 2.877 4.483 2.904-1.087 4-2.754 4.019-2.782zm-3.722 7.008l-.051.017c-4.541 1.581-6.024 4.767-6.04 4.801a7.688 7.688 0 0 0 4.731 1.627 7.674 7.674 0 0 0 3.005-.609c-.114-.671-.561-3.025-1.644-5.836zm2.94 5.134a7.688 7.688 0 0 0 3.298-5.156c-.158-.051-2.312-.732-4.796-.334 1.01 2.77 1.42 5.026 1.498 5.49zm-2.645-8.215c.179.367.352.74.511 1.114l.166.398c2.644-.332 5.249.227 5.36.25a7.64 7.64 0 0 0-1.75-4.803c-.015.021-1.249 1.802-4.288 3.041z"/></svg>